<svg width="33" height="24" viewBox="0 0 33 24" fill="none" xmlns="http://www.w3.org/2000/svg">
<path d="M29.084 7.49561C29.084 16.0582 22.8009 22.9988 15.042 22.9988C7.28311 22.9988 1 16.0582 1 7.49561C1 11.0828 7.28311 13.9906 15.042 13.9906C22.8009 13.9906 29.084 11.0828 29.084 7.49561Z" stroke="white" stroke-miterlimit="10"/>
<path d="M15.042 13.9909C22.7972 13.9909 29.084 11.083 29.084 7.49595C29.084 3.90888 22.7972 1.00098 15.042 1.00098C7.28682 1.00098 1 3.90888 1 7.49595C1 11.083 7.28682 13.9909 15.042 13.9909Z" stroke="white" stroke-miterlimit="10"/>
<path d="M2.25662 10.1846C3.11872 7.27686 8.5105 5.03394 15.042 5.03394C21.5735 5.03394 26.9653 7.27686 27.8274 10.1846" stroke="white" stroke-miterlimit="10"/>
<path d="M28.9087 9.92871C34.4393 9.92871 32.737 16.6648 26.3589 16.6648" stroke="white" stroke-miterlimit="10"/>
</svg>
