<svg width="29" height="29" viewBox="0 0 29 29" fill="none" xmlns="http://www.w3.org/2000/svg">
<path d="M14.4817 28.9999C6.45655 28.9636 -0.0241592 22.4647 6.77051e-05 14.476C0.0242947 6.46298 6.57769 -0.0661181 14.5302 0.000505384C22.5856 0.0671289 29.0482 6.55989 28.9997 14.5365C28.9513 22.5556 22.4524 29.0302 14.4878 28.9999H14.4817ZM21.1684 9.86078C21.1744 9.08553 20.8413 8.73424 20.2296 8.79481C19.8601 8.83115 19.4785 8.92805 19.1333 9.06736C17.716 9.63668 16.3109 10.2242 14.9057 10.8177C12.0954 12.0048 9.28505 13.192 6.47472 14.3972C6.20822 14.5123 5.94778 14.6819 5.7358 14.8818C5.48747 15.1059 5.54198 15.4269 5.82059 15.6146C5.92961 15.6873 6.05075 15.7539 6.17794 15.7903C7.03194 16.0507 7.87383 16.3354 8.73994 16.5595C9.40012 16.7291 10.0543 16.6382 10.6296 16.2506C12.6465 14.8999 14.6634 13.5372 16.6743 12.1805C16.8499 12.0594 17.0498 11.8171 17.2557 12.0654C17.4556 12.3077 17.1951 12.4712 17.0437 12.6226C15.6265 14.0157 14.1971 15.4087 12.7798 16.8017C12.2165 17.359 12.265 17.9404 12.9312 18.3886C14.3667 19.3577 15.8021 20.3328 17.2497 21.2776C17.5404 21.4714 17.8917 21.5926 18.2369 21.6834C18.7033 21.8046 18.9758 21.6834 19.1575 21.2413C19.3695 20.7265 19.5633 20.1874 19.6602 19.6363C20.0721 17.256 20.4476 14.8636 20.8231 12.4773C20.9685 11.5567 21.0715 10.63 21.1744 9.86684L21.1684 9.86078Z" fill="#FFBF48"/>
</svg>
