<svg width="28" height="28" viewBox="0 0 28 28" fill="none" xmlns="http://www.w3.org/2000/svg">
<path d="M14 0C6.26753 0 0 6.26753 0 14C0 21.7325 6.26753 28 14 28C21.7325 28 28 21.7325 28 14C28 6.26753 21.7325 0 14 0ZM22.2503 19.9159C21.3269 21.0032 20.2675 21.8835 18.7487 21.9525C17.6181 22.0043 16.5847 21.6052 15.6073 21.1241C11.4304 19.0701 8.35167 15.9525 6.62999 11.5836C6.42287 11.0572 6.3603 10.4725 6.23085 9.91586C6.29989 8.17907 7.35922 7.07875 8.57174 6.09709C8.71629 5.98058 9.18878 6.05825 9.35491 6.21143C10.315 7.1068 11.2362 8.04531 12.1553 8.98382C12.4941 9.32902 12.438 9.70442 12.1079 10.0388C11.6462 10.507 11.1758 10.9644 10.7163 11.4347C9.97411 12.192 9.93743 12.8198 10.5653 13.6548C11.7843 15.2729 13.2276 16.6624 14.8608 17.8554C15.6116 18.4035 16.2654 18.356 16.9428 17.6958C17.3981 17.2513 17.8317 16.7832 18.2869 16.3366C18.74 15.8921 19.0291 15.8749 19.4649 16.2999C20.3625 17.1758 21.2406 18.0712 22.1251 18.9601C22.4099 19.2449 22.5307 19.5879 22.2503 19.918V19.9159Z" fill="#FFBF48"/>
</svg>
