<svg width="29" height="30" viewBox="0 0 29 30" fill="none" xmlns="http://www.w3.org/2000/svg">
<path d="M14.4817 29.4999C6.45655 29.4636 -0.0241592 22.9647 6.77051e-05 14.976C0.0242947 6.96298 6.57769 0.433882 14.5302 0.500505C22.5856 0.567129 29.0482 7.05989 28.9997 15.0365C28.9513 23.0556 22.4524 29.5302 14.4878 29.4999H14.4817ZM21.1684 10.3608C21.1744 9.58553 20.8413 9.23424 20.2296 9.29481C19.8601 9.33115 19.4785 9.42805 19.1333 9.56736C17.716 10.1367 16.3109 10.7242 14.9057 11.3177C12.0954 12.5048 9.28505 13.692 6.47472 14.8972C6.20822 15.0123 5.94778 15.1819 5.7358 15.3818C5.48747 15.6059 5.54198 15.9269 5.82059 16.1146C5.92961 16.1873 6.05075 16.2539 6.17794 16.2903C7.03194 16.5507 7.87383 16.8354 8.73994 17.0595C9.40012 17.2291 10.0543 17.1382 10.6296 16.7506C12.6465 15.3999 14.6634 14.0372 16.6743 12.6805C16.8499 12.5594 17.0498 12.3171 17.2557 12.5654C17.4556 12.8077 17.1951 12.9712 17.0437 13.1226C15.6265 14.5157 14.1971 15.9087 12.7798 17.3017C12.2165 17.859 12.265 18.4404 12.9312 18.8886C14.3667 19.8577 15.8021 20.8328 17.2497 21.7776C17.5404 21.9714 17.8917 22.0926 18.2369 22.1834C18.7033 22.3046 18.9758 22.1834 19.1575 21.7413C19.3695 21.2265 19.5633 20.6874 19.6602 20.1363C20.0721 17.756 20.4476 15.3636 20.8231 12.9773C20.9685 12.0567 21.0715 11.13 21.1744 10.3668L21.1684 10.3608Z" fill="white"/>
</svg>
